<svg width="1200" height="630" viewBox="0 0 1200 630" fill="none" xmlns="http://www.w3.org/2000/svg">
  <defs>
    <linearGradient id="bg" x1="0" y1="0" x2="1200" y2="630" gradientUnits="userSpaceOnUse">
      <stop stop-color="#1C1917"/>
      <stop offset="1" stop-color="#374151"/>
    </linearGradient>
    <linearGradient id="accent" x1="0" y1="0" x2="1" y2="1">
      <stop stop-color="#F59E0B"/>
      <stop offset="1" stop-color="#FDE68A"/>
    </linearGradient>
  </defs>

  <rect width="1200" height="630" rx="28" fill="url(#bg)"/>
  <circle cx="1040" cy="118" r="150" fill="#F59E0B" fill-opacity="0.10"/>
  <circle cx="1110" cy="518" r="210" fill="#FBBF24" fill-opacity="0.08"/>

  <rect x="74" y="70" width="234" height="42" rx="21" fill="#111827" fill-opacity="0.55" stroke="#FBBF24" stroke-opacity="0.60"/>
  <text x="191" y="97" text-anchor="middle" fill="#FEF3C7" font-family="Segoe UI, Arial, sans-serif" font-size="18" font-weight="700">BUSINESS INTELLIGENCE</text>

  <text x="74" y="196" fill="#FFFFFF" font-family="Segoe UI, Arial, sans-serif" font-size="60" font-weight="800">Estresse Comercial</text>
  <text x="74" y="258" fill="#E5E7EB" font-family="Segoe UI, Arial, sans-serif" font-size="29" font-weight="500">EUA × China e impactos no comércio brasileiro</text>

  <rect x="74" y="314" width="404" height="56" rx="16" fill="#101826" fill-opacity="0.76" stroke="#4B5563"/>
  <text x="102" y="349" fill="#F9FAFB" font-family="Segoe UI, Arial, sans-serif" font-size="24" font-weight="700">Power BI · DAX · Power Query</text>

  <text x="74" y="430" fill="#FCD34D" font-family="Segoe UI, Arial, sans-serif" font-size="22" font-weight="700">Visão estratégica e executiva</text>
  <text x="74" y="464" fill="#D1D5DB" font-family="Segoe UI, Arial, sans-serif" font-size="22" font-weight="500">Dados econômicos transformados em leitura clara para decisão</text>

  <rect x="742" y="136" width="362" height="240" rx="28" fill="#FFFFFF" fill-opacity="0.05" stroke="#FFFFFF" stroke-opacity="0.10"/>
  <rect x="772" y="170" width="300" height="40" rx="14" fill="#F8FAFC" fill-opacity="0.08"/>
  <rect x="772" y="228" width="136" height="112" rx="22" fill="#F59E0B" fill-opacity="0.18"/>
  <rect x="936" y="230" width="118" height="18" rx="9" fill="#FEF3C7" fill-opacity="0.90"/>
  <rect x="936" y="262" width="100" height="14" rx="7" fill="#E5E7EB" fill-opacity="0.72"/>
  <rect x="936" y="290" width="84" height="14" rx="7" fill="#CBD5E1" fill-opacity="0.52"/>
  <path d="M790 340L846 306L892 322L944 280L1000 290L1050 248" stroke="url(#accent)" stroke-width="8" stroke-linecap="round" stroke-linejoin="round"/>
  <circle cx="790" cy="340" r="10" fill="#F59E0B"/>
  <circle cx="892" cy="322" r="10" fill="#FBBF24"/>
  <circle cx="1000" cy="290" r="10" fill="#FCD34D"/>
  <circle cx="1050" cy="248" r="10" fill="#FDE68A"/>

  <text x="74" y="566" fill="#9CA3AF" font-family="Segoe UI, Arial, sans-serif" font-size="18" font-weight="600">Portfólio de Raffael Henrique</text>
</svg>
